<svg width="16" height="16" viewBox="0 0 16 16" fill="none" xmlns="http://www.w3.org/2000/svg">
<path d="M8.6665 5.75745V14.6668C8.6665 15.035 8.36802 15.3334 7.99983 15.3334C7.63164 15.3334 7.33317 15.035 7.33317 14.6668V5.75853L4.6954 8.39633C4.43767 8.65407 4.02035 8.65738 3.76257 8.39969C3.75812 8.39525 3.75367 8.3908 3.74923 8.38636C3.49154 8.12857 3.49485 7.71126 3.75259 7.45352L7.76467 3.44141C7.89484 3.31123 8.1059 3.31123 8.23607 3.44141L12.2448 7.45017C12.5038 7.70918 12.4998 8.12986 12.2407 8.38888C11.9817 8.6479 11.561 8.65199 11.302 8.39298L8.6665 5.75745ZM3.99982 1.33341C3.99982 0.965225 4.2983 0.666748 4.66649 0.666748H11.3332C11.7014 0.666748 11.9998 0.965225 11.9998 1.33341C11.9998 1.7016 11.7014 2.00008 11.3332 2.00008H4.66649C4.2983 2.00008 3.99982 1.7016 3.99982 1.33341Z" fill="#86909C"/>
</svg>
