<svg width="16" height="16" viewBox="0 0 16 16" fill="none" xmlns="http://www.w3.org/2000/svg">
<path d="M12.5658 1.79941C11.0832 0.658953 8.9545 0.949819 7.83224 2.44621L5.98053 4.91511C4.92356 6.32441 5.20918 8.32372 6.61847 9.38065L7.2667 9.86685C7.56124 10.0878 7.9791 10.0281 8.20004 9.73352C8.42097 9.43899 8.36124 9.02112 8.0667 8.80019L7.4185 8.31399C6.59828 7.69885 6.43206 6.53531 7.04717 5.71511L8.8989 3.24621C9.5755 2.34401 10.859 2.16864 11.7528 2.85624C12.651 3.54715 12.8072 4.84072 12.0993 5.72558L11.1462 6.91705C10.9161 7.20459 10.9628 7.62412 11.2502 7.85412C11.5378 8.08412 11.9573 8.03752 12.1873 7.74998L13.1405 6.55851C14.3146 5.09087 14.0555 2.94536 12.5658 1.79941Z" fill="#4E5969"/>
<path d="M3.43433 14.2008C4.91692 15.3413 7.04563 15.0504 8.16789 13.554L10.0196 11.0851C11.0766 9.67583 10.7909 7.6765 9.38163 6.61956L8.73336 6.13337C8.43883 5.91246 8.02096 5.97215 7.80003 6.26671C7.57916 6.56126 7.63883 6.9791 7.93336 7.20003L8.58163 7.68623C9.40183 8.30137 9.56803 9.46497 8.95289 10.2851L7.10123 12.754C6.42457 13.6562 5.14115 13.8316 4.24728 13.144C3.34909 12.4531 3.19288 11.1595 3.90077 10.2746L4.85396 9.08317C5.08397 8.79563 5.03735 8.3761 4.74985 8.1461C4.46234 7.9161 4.04281 7.96277 3.8128 8.25023L2.85961 9.4417C1.6855 10.9094 1.94459 13.0549 3.43433 14.2008Z" fill="#4E5969"/>
</svg>
