<svg width="16" height="16" viewBox="0 0 16 16" fill="none" xmlns="http://www.w3.org/2000/svg">
<path d="M8.47252 2.70526C8.39646 2.6665 8.2969 2.6665 8.09777 2.6665H7.90221C7.70308 2.6665 7.60352 2.6665 7.52746 2.70526C7.46056 2.73935 7.40616 2.79374 7.37208 2.86064C7.33332 2.9367 7.33332 3.03626 7.33332 3.23539V7.33317H3.23555C3.03642 7.33317 2.93685 7.33317 2.86079 7.37192C2.79389 7.40601 2.7395 7.46041 2.70541 7.52731C2.66666 7.60336 2.66666 7.70293 2.66666 7.90206V8.09762C2.66666 8.29674 2.66666 8.39631 2.70541 8.47237C2.7395 8.53927 2.79389 8.59366 2.86079 8.62775C2.93685 8.6665 3.03642 8.6665 3.23555 8.6665H7.33332V12.7643C7.33332 12.9634 7.33332 13.063 7.37208 13.139C7.40616 13.2059 7.46056 13.2603 7.52746 13.2944C7.60352 13.3332 7.70308 13.3332 7.90221 13.3332H8.09777C8.2969 13.3332 8.39646 13.3332 8.47252 13.2944C8.53942 13.2603 8.59381 13.2059 8.6279 13.139C8.66666 13.063 8.66666 12.9634 8.66666 12.7643V8.6665H12.7644C12.9636 8.6665 13.0631 8.6665 13.1392 8.62775C13.2061 8.59366 13.2605 8.53927 13.2946 8.47237C13.3333 8.39631 13.3333 8.29674 13.3333 8.09762V7.90206C13.3333 7.70293 13.3333 7.60336 13.2946 7.52731C13.2605 7.46041 13.2061 7.40601 13.1392 7.37192C13.0631 7.33317 12.9636 7.33317 12.7644 7.33317H8.66666V3.23539C8.66666 3.03626 8.66666 2.9367 8.6279 2.86064C8.59381 2.79374 8.53942 2.73935 8.47252 2.70526Z" fill="white"/>
</svg>
