<svg width="16" height="16" viewBox="0 0 16 16" fill="none" xmlns="http://www.w3.org/2000/svg">
<path d="M5.9998 6H10.6665C10.9998 6 11.3331 6.26563 11.3331 6.66667C11.3331 7 11.0753 7.33333 10.6665 7.33333H6.01282C5.59845 7.33333 5.33313 7 5.33313 6.66667C5.33313 6.26563 5.66646 6 5.9998 6Z" fill="#4E5969"/>
<path d="M5.9998 8.66664H8.65866C9.07013 8.66664 9.33313 8.99998 9.33313 9.33331C9.33313 9.66664 9.07013 9.99998 8.66646 9.99998H5.9998C5.66646 9.99998 5.33313 9.73451 5.33313 9.33331C5.33313 8.93211 5.66646 8.66664 5.9998 8.66664Z" fill="#4E5969"/>
<path d="M2.26087 13.8216L2.96384 12.8157C1.82857 11.649 1.10305 10.1017 1.01107 8.3914C1.00372 8.26187 1 8.13133 1 8C1 4.13401 4.22439 1 8.20187 1C8.22413 1 8.24633 1.0001 8.26853 1.00029C8.29013 1.0001 8.31173 1 8.33333 1C10.074 1 11.6663 1.63536 12.8909 2.68682C13.8416 3.48016 14.5769 4.51039 15 5.68331C15.0145 5.72363 15.3333 7.04467 15.3333 8C15.3333 11.583 12.6413 14.5373 9.1696 14.9505L9.16793 14.9507C8.89427 14.9833 8.61573 15 8.33333 15L8.19833 14.9997C8.06267 14.9994 7.88167 14.9989 7.84407 14.9997C7.83953 14.9997 7.83707 15 7.83707 15H2.90299C2.27997 15 1.91082 14.3225 2.26087 13.8216ZM7.8408 13.6663C7.85767 13.6661 7.87813 13.666 7.89847 13.6659C7.94027 13.6659 7.99547 13.6659 8.05173 13.6661L8.33333 13.6667C11.4629 13.6667 14 11.1296 14 8C14 7.64227 13.9371 7.1658 13.8597 6.7338C13.8225 6.52651 13.785 6.34543 13.7563 6.21576C13.7435 6.1579 13.7328 6.11173 13.7251 6.07941C13.3818 5.15934 12.7962 4.3444 12.0367 3.71052L12.0295 3.70453L12.0224 3.69844C11.0303 2.8467 9.74347 2.33333 8.33333 2.33333C8.31573 2.33333 8.2982 2.33341 8.2806 2.33357L8.26873 2.33368L8.2568 2.33357C8.23853 2.33341 8.2202 2.33333 8.20187 2.33333C4.92478 2.33333 2.33333 4.90587 2.33333 8C2.33333 8.10613 2.33634 8.21147 2.34227 8.31593L2.34249 8.3198C2.41624 9.6914 2.99725 10.9381 3.91943 11.8859L4.68819 12.6759L3.99581 13.6667H7.81433C7.82533 13.6664 7.83507 13.6663 7.8408 13.6663ZM13.7153 6.03915L13.716 6.04203C13.7115 6.02618 13.7109 6.02226 13.7153 6.03915Z" fill="#4E5969"/>
</svg>
