<svg width="14" height="14" viewBox="0 0 14 14" fill="none" xmlns="http://www.w3.org/2000/svg">
<path d="M5.42085 1.33752C5.31146 1.44692 5.25 1.59529 5.25 1.75C5.25 1.90471 5.31146 2.05308 5.42085 2.16248C5.53025 2.27188 5.67862 2.33333 5.83333 2.33333H11.0833V8.75C11.0833 8.90471 11.1448 9.05308 11.2542 9.16248C11.3636 9.27187 11.512 9.33333 11.6667 9.33333C11.8214 9.33333 11.9697 9.27187 12.0791 9.16248C12.1885 9.05308 12.25 8.90471 12.25 8.75V1.75C12.25 1.59529 12.1885 1.44692 12.0791 1.33752C11.9697 1.22813 11.8214 1.16667 11.6667 1.16667H5.83333C5.67862 1.16667 5.53025 1.22813 5.42085 1.33752Z" fill="#4E5969"/>
<path fill-rule="evenodd" clip-rule="evenodd" d="M2.09171 3.84171C2.3105 3.62292 2.60725 3.5 2.91667 3.5H8.75C9.05942 3.5 9.35616 3.62292 9.57496 3.84171C9.79375 4.0605 9.91666 4.35725 9.91666 4.66667V11.6667C9.91666 11.9761 9.79375 12.2728 9.57496 12.4916C9.35616 12.7104 9.05942 12.8333 8.75 12.8333H2.91667C2.60725 12.8333 2.3105 12.7104 2.09171 12.4916C1.87292 12.2728 1.75 11.9761 1.75 11.6667V4.66667C1.75 4.35725 1.87292 4.0605 2.09171 3.84171ZM8.75 11.6667V4.66667H2.91667V11.6667H8.75Z" fill="#4E5969"/>
</svg>
