<svg width="14" height="14" viewBox="0 0 14 14" fill="none" xmlns="http://www.w3.org/2000/svg">
<path d="M3.73319 11.0833H5.25C5.57216 11.0833 5.83333 11.3445 5.83333 11.6667C5.83333 11.9888 5.57216 12.25 5.25 12.25H2.33333C2.17225 12.25 2.02642 12.1847 1.92085 12.0791C1.81529 11.9736 1.75 11.8278 1.75 11.6667V8.75C1.75 8.42784 2.01117 8.16667 2.33333 8.16667C2.6555 8.16667 2.91667 8.42784 2.91667 8.75V10.2499L5.53359 7.63302C5.75792 7.40869 6.11993 7.40775 6.34355 7.63279C6.57308 7.86377 6.57695 8.23957 6.34669 8.46983L3.73319 11.0833ZM11.0747 3.7917L8.49141 6.37499C8.26484 6.60157 7.89804 6.60165 7.67169 6.37484C7.44337 6.14604 7.44185 5.77464 7.67041 5.54608L10.2998 2.91667H8.74138C8.41921 2.91667 8.15804 2.6555 8.15804 2.33333C8.15804 2.01117 8.41921 1.75 8.74138 1.75H11.658C11.8191 1.75 11.965 1.81529 12.0705 1.92085C12.1761 2.02642 12.2414 2.17225 12.2414 2.33333V5.25C12.2414 5.57216 11.9802 5.83333 11.658 5.83333C11.3359 5.83333 11.0747 5.57216 11.0747 5.25V3.7917Z" fill="#4E5969"/>
</svg>
