<svg width="14" height="14" viewBox="0 0 14 14" fill="none" xmlns="http://www.w3.org/2000/svg">
<path d="M9.04166 3.79167C9.04166 2.18079 7.735 0.875 6.125 0.875C4.515 0.875 3.20833 2.18079 3.20833 3.79167C3.20833 5.40254 4.515 6.70833 6.125 6.70833C7.735 6.70833 9.04166 5.40254 9.04166 3.79167ZM6.125 5.54167C5.15958 5.54167 4.375 4.75825 4.375 3.79167C4.375 2.82508 5.15958 2.04167 6.125 2.04167C7.09041 2.04167 7.875 2.82508 7.875 3.79167C7.875 4.75825 7.09041 5.54167 6.125 5.54167Z" fill="#86909C"/>
<path d="M2.33333 11.0833C2.33333 10.8818 2.35958 10.6864 2.40625 10.5C2.66583 9.49375 3.57875 8.75 4.66666 8.75H7.30622V7.58333H4.66666C2.73291 7.58333 1.16666 9.15046 1.16666 11.0833V11.6667C1.16666 12.3083 1.69166 12.8333 2.33333 12.8333H7.29166V11.6667H2.33333V11.0833Z" fill="#86909C"/>
<path d="M10.5 12.8333C10.1778 12.8333 9.91666 12.5722 9.91666 12.25V11.0833H8.75C8.42783 11.0833 8.16666 10.8222 8.16666 10.5C8.16666 10.1778 8.42783 9.91667 8.75 9.91667H9.91666V8.75C9.91666 8.42783 10.1778 8.16667 10.5 8.16667C10.8222 8.16667 11.0833 8.42783 11.0833 8.75V9.91667H12.25C12.5722 9.91667 12.8333 10.1778 12.8333 10.5C12.8333 10.8222 12.5722 11.0833 12.25 11.0833H11.0833V12.25C11.0833 12.5722 10.8222 12.8333 10.5 12.8333Z" fill="#86909C"/>
</svg>
