<svg width="16" height="16" viewBox="0 0 16 16" fill="none" xmlns="http://www.w3.org/2000/svg">
<path d="M3.33333 0.666672C2.59695 0.666672 2 1.26363 2 2V14C2 14.7364 2.59695 15.3333 3.33333 15.3333H12.6667C13.403 15.3333 14 14.7364 14 14V4.66667C14 3.93029 13.403 3.33334 12.6667 3.33334H11.3333V2.00001C11.3333 1.26363 10.7364 0.666672 10 0.666672H3.33333ZM11.3333 14V4.66667H12.6667V14H11.3333ZM6 11.3333H7.33333C7.70152 11.3333 8 11.6318 8 12V14H5.33333V12C5.33333 11.6318 5.63181 11.3333 6 11.3333ZM4.66667 5.00001C4.66667 4.81591 4.81591 4.66667 5 4.66667H5.66667C5.85076 4.66667 6 4.81591 6 5.00001V5.66667C6 5.85077 5.85076 6.00001 5.66667 6.00001H5C4.81591 6.00001 4.66667 5.85077 4.66667 5.66667V5.00001ZM7.66667 4.66667H8.33333C8.51743 4.66667 8.66667 4.81591 8.66667 5.00001V5.66667C8.66667 5.85077 8.51743 6.00001 8.33333 6.00001H7.66667C7.48257 6.00001 7.33333 5.85077 7.33333 5.66667V5.00001C7.33333 4.81591 7.48257 4.66667 7.66667 4.66667ZM4.66667 7.66667C4.66667 7.48258 4.81591 7.33334 5 7.33334H5.66667C5.85076 7.33334 6 7.48258 6 7.66667V8.33334C6 8.51743 5.85076 8.66667 5.66667 8.66667H5C4.81591 8.66667 4.66667 8.51743 4.66667 8.33334V7.66667ZM7.66667 7.33334H8.33333C8.51743 7.33334 8.66667 7.48258 8.66667 7.66667V8.33334C8.66667 8.51743 8.51743 8.66667 8.33333 8.66667H7.66667C7.48257 8.66667 7.33333 8.51743 7.33333 8.33334V7.66667C7.33333 7.48258 7.48257 7.33334 7.66667 7.33334Z" fill="#194AD0"/>
</svg>
