<svg width="16" height="16" viewBox="0 0 16 16" fill="none" xmlns="http://www.w3.org/2000/svg">
<path d="M12.5827 4.66667C12.2866 5.81682 11.2426 6.66667 10 6.66667C8.75745 6.66667 7.71338 5.81682 7.41735 4.66667H2.00001C1.63182 4.66667 1.33334 4.36819 1.33334 4C1.33334 3.63181 1.63182 3.33333 2.00001 3.33333H7.41735C7.71338 2.18318 8.75745 1.33333 10 1.33333C11.2426 1.33333 12.2866 2.18318 12.5827 3.33333H14C14.3682 3.33333 14.6667 3.63181 14.6667 4C14.6667 4.36819 14.3682 4.66667 14 4.66667H12.5827ZM10 5.33333C10.7364 5.33333 11.3333 4.73638 11.3333 4C11.3333 3.26362 10.7364 2.66667 10 2.66667C9.26363 2.66667 8.66668 3.26362 8.66668 4C8.66668 4.73638 9.26363 5.33333 10 5.33333Z" fill="#4E5969"/>
<path d="M8.58266 12.6667C8.28664 13.8168 7.24257 14.6667 6.00001 14.6667C4.75745 14.6667 3.71338 13.8168 3.41736 12.6667H2.00001C1.63182 12.6667 1.33334 12.3682 1.33334 12C1.33334 11.6318 1.63182 11.3333 2.00001 11.3333H3.41736C3.71338 10.1832 4.75745 9.33333 6.00001 9.33333C7.24257 9.33333 8.28664 10.1832 8.58266 11.3333H14C14.3682 11.3333 14.6667 11.6318 14.6667 12C14.6667 12.3682 14.3682 12.6667 14 12.6667H8.58266ZM6.00001 13.3333C6.73639 13.3333 7.33334 12.7364 7.33334 12C7.33334 11.2636 6.73639 10.6667 6.00001 10.6667C5.26363 10.6667 4.66668 11.2636 4.66668 12C4.66668 12.7364 5.26363 13.3333 6.00001 13.3333Z" fill="#4E5969"/>
</svg>
