<svg width="14" height="14" viewBox="0 0 14 14" fill="none" xmlns="http://www.w3.org/2000/svg">
<path d="M6.99996 1.16669C6.67779 1.16669 6.41663 1.42785 6.41663 1.75002V6.41669H1.74996C1.42779 6.41669 1.16663 6.67785 1.16663 7.00002C1.16663 7.32219 1.42779 7.58335 1.74996 7.58335H6.41663V12.25C6.41663 12.5722 6.67779 12.8334 6.99996 12.8334C7.32212 12.8334 7.58329 12.5722 7.58329 12.25V7.58335H12.25C12.5721 7.58335 12.8333 7.32219 12.8333 7.00002C12.8333 6.67785 12.5721 6.41669 12.25 6.41669H7.58329V1.75002C7.58329 1.42785 7.32212 1.16669 6.99996 1.16669Z" fill="#4E5969"/>
</svg>
