<svg width="14" height="14" viewBox="0 0 14 14" fill="none" xmlns="http://www.w3.org/2000/svg">
<path d="M3.93746 4.66666C3.93746 4.3445 4.19863 4.08333 4.52079 4.08333H9.47913C9.80129 4.08333 10.0625 4.3445 10.0625 4.66666C10.0625 4.98883 9.80129 5.24999 9.47913 5.24999H4.52079C4.19863 5.24999 3.93746 4.98883 3.93746 4.66666Z" fill="#4E5969"/>
<path d="M3.93746 6.99999C3.93746 6.67783 4.19863 6.41666 4.52079 6.41666H9.47913C9.80129 6.41666 10.0625 6.67783 10.0625 6.99999C10.0625 7.32216 9.80129 7.58333 9.47913 7.58333H4.52079C4.19863 7.58333 3.93746 7.32216 3.93746 6.99999Z" fill="#4E5969"/>
<path d="M4.52079 8.75C4.19863 8.75 3.93746 9.01116 3.93746 9.33333C3.93746 9.65549 4.19863 9.91666 4.52079 9.91666H7.14579C7.46796 9.91666 7.72913 9.65549 7.72913 9.33333C7.72913 9.01116 7.46796 8.75 7.14579 8.75H4.52079Z" fill="#4E5969"/>
<path d="M4.08329 0.583328C4.40546 0.583328 4.66663 0.844495 4.66663 1.16666H9.33329C9.33329 0.844495 9.59446 0.583328 9.91663 0.583328C10.2388 0.583328 10.5 0.844495 10.5 1.16666H11.6666C12.311 1.16666 12.8333 1.689 12.8333 2.33333V12.25C12.8333 12.8943 12.311 13.4167 11.6666 13.4167H2.33329C1.68896 13.4167 1.16663 12.8943 1.16663 12.25V2.33333C1.16663 1.689 1.68894 1.16666 2.33327 1.16666H3.49996C3.49996 0.844495 3.76113 0.583328 4.08329 0.583328ZM9.33329 2.33333H4.66663C4.66663 2.65549 4.40546 2.91666 4.08329 2.91666C3.76113 2.91666 3.49996 2.65549 3.49996 2.33333H2.33329V12.25H11.6666V2.33333H10.5C10.5 2.65549 10.2388 2.91666 9.91663 2.91666C9.59446 2.91666 9.33329 2.65549 9.33329 2.33333Z" fill="#4E5969"/>
</svg>
