<svg width="16" height="16" viewBox="0 0 16 16" fill="none" xmlns="http://www.w3.org/2000/svg">
<path d="M3.33341 4.66671C3.33341 6.50771 4.82675 8.00004 6.66675 8.00004C8.50675 8.00004 10.0001 6.50771 10.0001 4.66671C10.0001 2.82571 8.50675 1.33337 6.66675 1.33337C4.82675 1.33337 3.33341 2.82571 3.33341 4.66671ZM8.66675 4.66671C8.66675 5.77092 7.77078 6.66671 6.66675 6.66671C5.56272 6.66671 4.66675 5.77092 4.66675 4.66671C4.66675 3.56249 5.56272 2.66671 6.66675 2.66671C7.77078 2.66671 8.66675 3.56249 8.66675 4.66671Z" fill="#4E5969"/>
<path d="M4.66675 8.66671C2.45675 8.66671 0.666748 10.4577 0.666748 12.6667V13.6667C0.666748 14.4 1.26675 15 2.00008 15H11.3334C12.0667 15 12.6667 14.4 12.6667 13.6667V12.6667C12.6667 10.4577 10.8767 8.66671 8.66675 8.66671H4.66675ZM8.66675 10C10.14 10 11.3334 11.1937 11.3334 12.6667V13.6924H2.00008V12.6667C2.00008 11.1937 3.19352 10 4.66675 10H8.66675Z" fill="#4E5969"/>
<path d="M11.3334 6.66671C11.3334 6.29852 11.6319 6.00004 12.0001 6.00004H14.6667C15.0349 6.00004 15.3334 6.29852 15.3334 6.66671C15.3334 7.0349 15.0349 7.33337 14.6667 7.33337H12.0001C11.6319 7.33337 11.3334 7.0349 11.3334 6.66671Z" fill="#4E5969"/>
<path d="M13.3334 9.33337C13.3334 8.96518 13.6319 8.66671 14.0001 8.66671H14.6667C15.0349 8.66671 15.3334 8.96518 15.3334 9.33337C15.3334 9.70156 15.0349 10 14.6667 10H14.0001C13.6319 10 13.3334 9.70156 13.3334 9.33337Z" fill="#4E5969"/>
</svg>
