<svg width="16" height="16" viewBox="0 0 16 16" fill="none" xmlns="http://www.w3.org/2000/svg">
<path d="M4.66667 4.99996C4.66667 4.81586 4.81591 4.66663 5 4.66663H5.66667C5.85076 4.66663 6 4.81586 6 4.99996V5.66663C6 5.85072 5.85076 5.99996 5.66667 5.99996H5C4.81591 5.99996 4.66667 5.85072 4.66667 5.66663V4.99996Z" fill="#4E5969"/>
<path d="M7.66667 4.66663C7.48257 4.66663 7.33333 4.81586 7.33333 4.99996V5.66663C7.33333 5.85072 7.48257 5.99996 7.66667 5.99996H8.33333C8.51743 5.99996 8.66667 5.85072 8.66667 5.66663V4.99996C8.66667 4.81586 8.51743 4.66663 8.33333 4.66663H7.66667Z" fill="#4E5969"/>
<path d="M4.66667 7.66663C4.66667 7.48253 4.81591 7.33329 5 7.33329H5.66667C5.85076 7.33329 6 7.48253 6 7.66663V8.33329C6 8.51739 5.85076 8.66663 5.66667 8.66663H5C4.81591 8.66663 4.66667 8.51739 4.66667 8.33329V7.66663Z" fill="#4E5969"/>
<path d="M7.66667 7.33329C7.48257 7.33329 7.33333 7.48253 7.33333 7.66663V8.33329C7.33333 8.51739 7.48257 8.66663 7.66667 8.66663H8.33333C8.51743 8.66663 8.66667 8.51739 8.66667 8.33329V7.66663C8.66667 7.48253 8.51743 7.33329 8.33333 7.33329H7.66667Z" fill="#4E5969"/>
<path d="M3.33333 15.3333C2.59695 15.3333 2 14.7363 2 14V1.99996C2 1.26358 2.59695 0.666626 3.33333 0.666626H10C10.7364 0.666626 11.3333 1.26358 11.3333 1.99996V3.33329H12.6667C13.403 3.33329 14 3.93025 14 4.66663V14C14 14.7363 13.403 15.3333 12.6667 15.3333H3.33333ZM10 1.99996H3.33333L3.33333 14H5.33333V12C5.33333 11.6318 5.63181 11.3333 6 11.3333H7.33333C7.70152 11.3333 8 11.6318 8 12V14H10V1.99996ZM11.3333 14H12.6667V4.66663H11.3333V14Z" fill="#4E5969"/>
</svg>
