<svg width="16" height="16" viewBox="0 0 16 16" fill="none" xmlns="http://www.w3.org/2000/svg">
<path d="M2.80013 1.46584C2.06375 1.46584 1.4668 2.0628 1.4668 2.79918V5.79918C1.4668 6.53555 2.06375 7.13251 2.80013 7.13251H5.80013C6.53651 7.13251 7.13346 6.53555 7.13346 5.79918V2.79918C7.13346 2.0628 6.53651 1.46584 5.80013 1.46584H2.80013ZM2.80013 2.79918H5.80013V5.79918H2.80013V2.79918ZM2.80013 8.86688C2.06375 8.86688 1.4668 9.46384 1.4668 10.2002V13.2002C1.4668 13.9366 2.06375 14.5336 2.80013 14.5336H5.80013C6.53651 14.5336 7.13346 13.9366 7.13346 13.2002V10.2002C7.13346 9.46384 6.53651 8.86688 5.80013 8.86688H2.80013ZM2.80013 10.2002H5.80013V13.2002H2.80013V10.2002ZM10.1999 8.86688C9.46349 8.86688 8.86654 9.46384 8.86654 10.2002V13.2007C8.86654 13.9371 9.46349 14.5341 10.1999 14.5341H13.2004C13.9368 14.5341 14.5337 13.9371 14.5337 13.2007V10.2002C14.5337 9.46384 13.9368 8.86688 13.2004 8.86688H10.1999ZM10.1999 10.2002H13.2004V13.2007H10.1999V10.2002Z" fill="#4E5969"/>
<path d="M12.2401 1.39923C12.0431 0.866921 11.2902 0.866922 11.0932 1.39923L10.5532 2.85865C10.4913 3.026 10.3593 3.15795 10.192 3.21988L8.73257 3.75991C8.20025 3.95689 8.20026 4.70978 8.73257 4.90675L10.192 5.44679C10.3593 5.50871 10.4913 5.64066 10.5532 5.80802L11.0932 7.26743C11.2902 7.79974 12.0431 7.79974 12.2401 7.26743L12.7801 5.80802C12.842 5.64066 12.974 5.50871 13.1414 5.44679L14.6008 4.90675C15.1331 4.70978 15.1331 3.95688 14.6008 3.75991L13.1414 3.21988C12.974 3.15795 12.842 3.026 12.7801 2.85865L12.2401 1.39923Z" fill="#4E5969"/>
</svg>
