<svg width="16" height="16" viewBox="0 0 16 16" fill="none" xmlns="http://www.w3.org/2000/svg">
<path d="M7.33333 8C6.96514 8 6.66667 8.29848 6.66667 8.66667V10C6.66667 10.3682 6.96514 10.6667 7.33333 10.6667C7.70152 10.6667 8 10.3682 8 10V8.66667C8 8.29848 7.70152 8 7.33333 8Z" fill="#272E3B"/>
<path d="M9.33333 15.3335L9.3532 15.3333H12.6667C13.403 15.3333 14 14.7364 14 14V4.66667C14 3.93029 13.403 3.33333 12.6667 3.33333H10.6667V1.50485C10.6667 1.07612 10.2678 0.758849 9.85009 0.855251L3.03352 2.42831C2.42855 2.56792 2 3.10662 2 3.72749V14.0001C2 14.7365 2.59695 15.3335 3.33333 15.3335H9.33333ZM9.33333 2.34288V14.0001H3.33333L3.33333 3.72749L9.33333 2.34288ZM12.6667 14H10.6667V4.66667H12.6667V14Z" fill="#272E3B"/>
</svg>
