<svg width="16" height="16" viewBox="0 0 16 16" fill="none" xmlns="http://www.w3.org/2000/svg">
<path d="M0.666748 2.66659C0.666748 1.93325 1.26675 1.33325 2.00008 1.33325H14.0001C14.7334 1.33325 15.3334 1.93325 15.3334 2.66659V10.6666C15.3334 11.3999 14.7334 11.9999 14.0001 11.9999H8.66675V13.3333H11.3334C11.7016 13.3333 12.0001 13.6317 12.0001 13.9999C12.0001 14.3681 11.7016 14.6666 11.3334 14.6666H4.66675C4.29856 14.6666 4.00008 14.3681 4.00008 13.9999C4.00008 13.6317 4.29856 13.3333 4.66675 13.3333H7.33342V11.9999H2.00008C1.26675 11.9999 0.666748 11.3999 0.666748 10.6666V2.66659ZM14.0001 2.66659H2.00008V10.6666H14.0001V2.66659Z" fill="#272E3B"/>
</svg>
