<svg width="16" height="16" viewBox="0 0 16 16" fill="none" xmlns="http://www.w3.org/2000/svg">
<path d="M7.78353 1.48311C4.06474 1.48316 1.0498 4.49804 1.0498 8.21684C1.04985 9.82274 1.61289 11.2981 2.55111 12.4551L1.74642 13.2911C1.14723 13.9131 1.58846 14.9498 2.45215 14.9499H7.78353C11.5022 14.9498 14.5165 11.9355 14.5166 8.21684C14.5166 7.32423 14.3411 6.47294 14.0257 5.6934C14.0093 5.70773 13.993 5.72225 13.9769 5.73702C13.732 5.96192 13.5338 6.23307 13.3936 6.53455C13.2533 6.8362 13.1734 7.1631 13.1592 7.49548C13.1548 7.59748 13.1584 7.69946 13.1663 7.80082H13.165C13.1755 7.93818 13.1833 8.07679 13.1833 8.21684C13.1832 11.1991 10.7658 13.6165 7.78353 13.6166H3.28418L3.94043 12.9356C4.19106 12.6753 4.18875 12.2627 3.93522 12.0052C2.97478 11.0298 2.38319 9.69306 2.38314 8.21684C2.38314 5.23442 4.80112 2.81649 7.78353 2.81645C7.9357 2.81645 8.08636 2.82428 8.23535 2.83663C8.52883 2.82336 8.81823 2.7598 9.09017 2.64718C9.39733 2.51992 9.67665 2.3334 9.91178 2.09835C9.97734 2.03279 10.0382 1.96276 10.096 1.89067C9.37492 1.62695 8.59597 1.48314 7.78353 1.48311Z" fill="#4E5969"/>
<path d="M12.2835 1.05017C12.3572 1.05017 12.4164 1.1101 12.4202 1.18363C12.4874 2.47652 13.5238 3.51301 14.8167 3.58012C14.8903 3.58393 14.9502 3.6432 14.9502 3.71684C14.9502 3.79048 14.8903 3.84974 14.8167 3.85356C13.5238 3.92066 12.4874 4.95715 12.4202 6.25004C12.4164 6.32358 12.3572 6.3835 12.2835 6.3835C12.2099 6.3835 12.1506 6.32358 12.1468 6.25004C12.0797 4.95715 11.0432 3.92066 9.75033 3.85356C9.67679 3.84974 9.61686 3.79048 9.61686 3.71684C9.61686 3.6432 9.67679 3.58393 9.75033 3.58012C11.0432 3.51301 12.0797 2.47652 12.1468 1.18363C12.1506 1.1101 12.2099 1.05017 12.2835 1.05017Z" fill="#4E5969"/>
</svg>
